<svg id="图层_1" data-name="图层 1" xmlns="http://www.w3.org/2000/svg" viewBox="0 0 8.74 11.48"><defs><style>.cls-1{fill:#212733;}.cls-2{fill:#fff;}</style></defs><path class="cls-1" d="M34.61,29.33l-7.12-4.92a.81.81,0,0,0-1.28.66v9.86a.81.81,0,0,0,1.28.66l7.12-4.92A.82.82,0,0,0,34.61,29.33Z" transform="translate(-26.21 -24.26)"/><path class="cls-2" d="M34.61,29.33l-7.12-4.92a.81.81,0,0,0-1.28.66v9.86a.81.81,0,0,0,1.28.66l7.12-4.92A.82.82,0,0,0,34.61,29.33Z" transform="translate(-26.21 -24.26)"/></svg>