<svg xmlns="http://www.w3.org/2000/svg" viewBox="0 0 450.06 450.06"><defs><style>.cls-1,.cls-2,.cls-3{fill:none;stroke-miterlimit:10;}.cls-1{stroke:#0e1c2c;stroke-width:149px;}.cls-2{stroke:#283545;stroke-width:0.5px;}.cls-3{stroke:#e74a35;stroke-width:7px;}</style></defs><g id="图层_2" data-name="图层 2"><g id="图层_1-2" data-name="图层 1"><circle class="cls-1" cx="225.03" cy="225.03" r="150.5"/><path class="cls-2" d="M418.12,125.92A217,217,0,1,1,365.5,59.54a217.49,217.49,0,0,1,52.62,66.38"/><path class="cls-2" d="M407.87,131.18A205.53,205.53,0,1,1,358,68.32a206.05,206.05,0,0,1,49.83,62.86"/><path class="cls-2" d="M397.62,136.45a193.86,193.86,0,1,1-47-59.35,194.51,194.51,0,0,1,47,59.35"/><path class="cls-2" d="M387.37,141.71a182.42,182.42,0,1,1-44.24-55.82,182.86,182.86,0,0,1,44.24,55.82"/><path class="cls-2" d="M377.12,147a170.95,170.95,0,1,1-41.45-52.3A171.42,171.42,0,0,1,377.12,147"/><path class="cls-2" d="M366.87,152.23a159.31,159.31,0,1,1-38.65-48.78,159.93,159.93,0,0,1,38.65,48.78"/><path class="cls-2" d="M356.62,157.49a147.87,147.87,0,1,1-35.86-45.25,148.29,148.29,0,0,1,35.86,45.25"/><path class="cls-2" d="M346.37,162.75A136.32,136.32,0,1,1,313.31,121a136.84,136.84,0,0,1,33.06,41.73"/><path class="cls-2" d="M334.07,169.07a122.49,122.49,0,1,1-29.71-37.51,123,123,0,0,1,29.71,37.51"/><path class="cls-2" d="M323.82,174.33a111,111,0,1,1-26.92-34,111.36,111.36,0,0,1,26.92,34"/><circle class="cls-3" cx="225.03" cy="225.03" r="93.03"/></g></g></svg>