<?xml version="1.0" standalone="no"?><!DOCTYPE svg PUBLIC "-//W3C//DTD SVG 1.1//EN" "http://www.w3.org/Graphics/SVG/1.1/DTD/svg11.dtd"><svg t="1618411281600" class="icon" viewBox="0 0 1024 1024" version="1.1" xmlns="http://www.w3.org/2000/svg" p-id="2033" xmlns:xlink="http://www.w3.org/1999/xlink" width="64" height="64"><defs><style type="text/css"></style></defs><path d="M471.686852 101.799524c204.344015 0.792039 367.17966 165.864632 365.341802 370.361119-1.805112 200.791096-167.922501 364.102578-368.817973 362.586039-204.01758-1.540076-367.660614-167.740352-365.522927-371.229906C104.803951 262.195607 269.228791 101.015671 471.686852 101.799524zM468.74894 747.379868c154.815995 0.411369 279.958156-122.55422 281.982256-277.076526 2.02717-154.871253-126.195144-283.401582-282.128589-282.802948-153.907299 0.590448-279.005458 126.299521-279.005458 280.371572C189.597149 622.259196 314.14784 746.968499 468.74894 747.379868z" p-id="2034"></path><path d="M853.313549 911.047462l-63.485917-63.485917c-14.874779-14.874779-14.874779-39.214117 0-54.088896l2.774183-2.774183c14.874779-14.874779 39.214117-14.874779 54.088896 0l63.485917 63.485917c14.874779 14.874779 14.874779 39.214117 0 54.088896l-2.774183 2.774183C892.527666 925.921217 868.188328 925.921217 853.313549 911.047462z" p-id="2035"></path></svg>