<svg xmlns="http://www.w3.org/2000/svg" viewBox="0 0 20.9 19"><defs><style>.cls-1{fill:#4b4f64;}</style></defs><g id="图层_2" data-name="图层 2"><g id="图层_1-2" data-name="图层 1"><path class="cls-1" d="M6.1,6.2,7.16,7.87,8.54,5.69,8.05,4.9A5.88,5.88,0,0,0,3.48,2.37H0V4.75H3.48A3.64,3.64,0,0,1,6.1,6.2Zm9.57-1.45h1.75V7.12L20.9,3.56,17.42,0V2.37H15.67A5.87,5.87,0,0,0,11.11,4.9l-5,7.9a3.64,3.64,0,0,1-2.62,1.45H0v2.38H3.48A5.88,5.88,0,0,0,8.05,14.1l5-7.9a3.62,3.62,0,0,1,2.61-1.45Z"/><path class="cls-1" d="M17.42,14.25H15.67a3.62,3.62,0,0,1-2.61-1.45L12,11.13l-1.38,2.18.49.79a5.87,5.87,0,0,0,4.56,2.53h1.75V19l3.48-3.56-3.48-3.56Z"/></g></g></svg>