<svg id="图层_1" data-name="图层 1" xmlns="http://www.w3.org/2000/svg" viewBox="0 0 35.34 30.34"><defs><style>.cls-1{fill:#f85f69;}.cls-2{fill:#f498a6;}.cls-3{fill:#f33b3d;}</style></defs><path class="cls-1" d="M44.58,32,33.14,43.42a4.22,4.22,0,0,1-6,0L15.48,31.71A10.19,10.19,0,0,1,29.89,17.3Zm0,0" transform="translate(-12.49 -14.32)"/><path class="cls-2" d="M15.76,32,27.19,43.41a4.21,4.21,0,0,0,6,0l11.7-11.7A10.19,10.19,0,0,0,30.44,17.3Zm0,0" transform="translate(-12.49 -14.32)"/><path class="cls-3" d="M15.76,32,27.11,43.33a4.33,4.33,0,0,0,6.12,0L44.58,32,30.16,17.57Zm0,0" transform="translate(-12.49 -14.32)"/></svg>