<svg id="图层_1" data-name="图层 1" xmlns="http://www.w3.org/2000/svg" viewBox="0 0 32.56 33.18"><defs><style>.cls-1{fill:#ffac3e;}.cls-2{fill:#ff7c0e;}.cls-3{fill:#fff;}</style></defs><path class="cls-1" d="M47.28,30l-3.13-2.23a1.6,1.6,0,0,0-1.42-.24,1.64,1.64,0,0,0-1.07,1l-1.79,4.57a4.41,4.41,0,0,0-1.12-.64,4.54,4.54,0,1,0,2.38,6.3,1.23,1.23,0,0,0,.17-.32L44,31.71l1.42,1A1.65,1.65,0,0,0,47.28,30Zm0,0" transform="translate(-15.4 -13.41)"/><path class="cls-1" d="M41.3,38.45a1.23,1.23,0,0,1-.17.32,4.54,4.54,0,1,1-2.38-6.3,4.41,4.41,0,0,1,1.12.64l1.79-4.57a1.64,1.64,0,0,1,1.07-1,1.6,1.6,0,0,1,1.36.21V18.6a5.23,5.23,0,0,0-5.27-5.19H20.68A5.24,5.24,0,0,0,15.4,18.6V41.4a5.24,5.24,0,0,0,5.28,5.19H38.82a5.23,5.23,0,0,0,5.27-5.18v-9.6l-.14-.1Z" transform="translate(-15.4 -13.41)"/><path class="cls-2" d="M42.73,27.57a1.64,1.64,0,0,0-1.07,1l-1.79,4.57a4.41,4.41,0,0,0-1.12-.64,4.54,4.54,0,1,0,2.38,6.3,1.23,1.23,0,0,0,.17-.32L44,31.71l.14.1v-4A1.6,1.6,0,0,0,42.73,27.57Z" transform="translate(-15.4 -13.41)"/><path class="cls-3" d="M35.9,22.83H23.23a1.6,1.6,0,0,1,0-3.2H35.9a1.6,1.6,0,0,1,0,3.2Zm0,6.33H23.23a1.6,1.6,0,0,1,0-3.2H35.9a1.6,1.6,0,0,1,0,3.2Zm-6.61,6.32H23.23a1.6,1.6,0,1,1,0-3.19H29.3a1.6,1.6,0,1,1,0,3.19Zm0,0" transform="translate(-15.4 -13.41)"/></svg>