<svg id="图层_1" data-name="图层 1" xmlns="http://www.w3.org/2000/svg" viewBox="0 0 29.44 26.65"><defs><style>.cls-1{fill:#635df7;}.cls-2{fill:none;}.cls-3{fill:#f7f8f8;}.cls-4{fill:#a5adf6;}.cls-5{font-size:4.97px;fill:#fff;font-family:DFPYuanW7, DFPYuanW7-GB;}</style></defs><path class="cls-1" d="M39.22,18.15H29.27L18.84,22.32a1.56,1.56,0,0,1-1.16-2.9l3.19-1.27H18.92a4.55,4.55,0,0,0-4.55,4.55V36.17a4.55,4.55,0,0,0,4.55,4.55h20.3a4.55,4.55,0,0,0,4.55-4.55V22.7A4.55,4.55,0,0,0,39.22,18.15Z" transform="translate(-14.37 -14.1)"/><rect id="SVGID" class="cls-2" x="0.01" width="29.43" height="26.65"/><path class="cls-3" d="M22.93,35.59a5,5,0,1,1,5-5,5,5,0,0,1-5,5Zm0-7.84a2.87,2.87,0,1,0,2.86,2.86,2.87,2.87,0,0,0-2.86-2.86Zm0,0" transform="translate(-14.37 -14.1)"/><rect class="cls-3" x="16.36" y="13.86" width="1.82" height="6.2" rx="0.91"/><rect class="cls-3" x="23.41" y="13.86" width="1.82" height="6.2" rx="0.91"/><rect class="cls-3" x="19.73" y="11.74" width="2.09" height="9.54" rx="1.04"/><rect class="cls-4" x="6.4" y="1.47" width="8.33" height="6.81" rx="0.94"/><text class="cls-5" transform="translate(7.29 6.44)">FM</text></svg>