<svg id="图层_1" data-name="图层 1" xmlns="http://www.w3.org/2000/svg" xmlns:xlink="http://www.w3.org/1999/xlink" viewBox="0 0 31.06 33.79"><defs><style>.cls-1{fill:none;}.cls-2{clip-path:url(#clip-path);}.cls-3{fill:#80b7f9;}.cls-4{fill:#3e8bf8;}.cls-5{fill:#fff;}</style><clipPath id="clip-path" transform="translate(-15.1 -11.78)"><rect id="SVGID" class="cls-1" x="15.11" y="11.78" width="31.09" height="33.84"/></clipPath></defs><g class="cls-2"><path class="cls-3" d="M38.08,43.37h-18a5,5,0,0,1-5-5V19.58a5,5,0,0,1,5-5H38.84a5,5,0,0,1,5,5V37.65a5.73,5.73,0,0,1-5.73,5.72Zm0,0" transform="translate(-15.1 -11.78)"/><path class="cls-3" d="M28.65,36.82a8.76,8.76,0,1,0,8.76-8.76,8.77,8.77,0,0,0-8.76,8.76Zm0,0" transform="translate(-15.1 -11.78)"/></g><path class="cls-4" d="M43.81,37.87v-7A8.75,8.75,0,1,0,31.62,43.37H38.3a5.51,5.51,0,0,0,5.51-5.5Zm0,0" transform="translate(-15.1 -11.78)"/><path class="cls-3" d="M23,18.21a1.47,1.47,0,0,1-1.47-1.47V13.25a1.47,1.47,0,1,1,2.94,0v3.49A1.47,1.47,0,0,1,23,18.21Zm13.08,0a1.47,1.47,0,0,1-1.47-1.47V13.25a1.47,1.47,0,0,1,2.94,0v3.49a1.47,1.47,0,0,1-1.47,1.47Zm0,0" transform="translate(-15.1 -11.78)"/><path class="cls-4" d="M21.51,14.62v2.12a1.47,1.47,0,0,0,2.94,0V14.62Zm13.08,0v2.12a1.47,1.47,0,0,0,2.94,0V14.62Zm0,0" transform="translate(-15.1 -11.78)"/><path class="cls-5" d="M39.71,23.46H19.2a1.53,1.53,0,1,1,0-3.06H39.71a1.53,1.53,0,0,1,0,3.06Zm-18,7H19.2a1.53,1.53,0,0,1,0-3.06h2.47a1.53,1.53,0,0,1,0,3.06Zm7.1,0H26.29a1.53,1.53,0,0,1,0-3.06h2.48a1.53,1.53,0,0,1,0,3.06Zm7.56,10.39a1.52,1.52,0,0,1-1.1-.47l-2.44-2.54a1.52,1.52,0,0,1,0-2.16,1.52,1.52,0,0,1,1.09-.43,1.55,1.55,0,0,1,1.07.47l1.31,1.36,3.49-3.86a1.52,1.52,0,0,1,1.06-.5,1.55,1.55,0,0,1,1.1.4,1.52,1.52,0,0,1,.1,2.16l-4.59,5.07a1.5,1.5,0,0,1-1.11.5Zm0,0" transform="translate(-15.1 -11.78)"/></svg>