<svg id="图层_1" data-name="图层 1" xmlns="http://www.w3.org/2000/svg" viewBox="0 0 31.3 33.6"><defs><style>.cls-1{fill:#4be2ac;}.cls-2{fill:#06cc76;}.cls-3{fill:#fff;}</style></defs><path class="cls-1" d="M32.58,35.07a6.94,6.94,0,0,1,11.17-5.51V18.66a5.26,5.26,0,0,0-5.26-5.25h-18a5.25,5.25,0,0,0-5.25,5.25v23.1A5.25,5.25,0,0,0,20.44,47H38.49a5.26,5.26,0,0,0,5.26-5.25V40.59a6.95,6.95,0,0,1-11.17-5.52Z" transform="translate(-15.19 -13.41)"/><rect class="cls-2" x="17.39" y="14.71" width="13.9" height="13.9" rx="6.95"/><rect class="cls-3" x="20.88" y="16.59" width="3.88" height="9.31" rx="1.94"/><path class="cls-1" d="M46.49,35.07a6.94,6.94,0,0,0-2.74-5.51v11A7,7,0,0,0,46.49,35.07Z" transform="translate(-15.19 -13.41)"/><rect class="cls-3" x="5.02" y="11.76" width="3.88" height="14.76" rx="1.94"/><rect class="cls-3" x="12.34" y="8.32" width="3.88" height="18.2" rx="1.94"/></svg>